<?xml version="1.0" encoding="UTF-8" standalone="no"?>
<!-- Created with Inkscape (http://www.inkscape.org/) -->

<svg
   width="45.555286mm"
   height="9.5162153mm"
   viewBox="0 0 45.555286 9.5162153"
   version="1.1"
   id="svg1"
   inkscape:version="1.4.2 (ebf0e940d0, 2025-05-08)"
   sodipodi:docname="logo-white.svg"
   xmlns:inkscape="http://www.inkscape.org/namespaces/inkscape"
   xmlns:sodipodi="http://sodipodi.sourceforge.net/DTD/sodipodi-0.dtd"
   xmlns="http://www.w3.org/2000/svg"
   xmlns:svg="http://www.w3.org/2000/svg">
  <sodipodi:namedview
     id="namedview1"
     pagecolor="#ffffff"
     bordercolor="#666666"
     borderopacity="1.0"
     inkscape:showpageshadow="2"
     inkscape:pageopacity="0.0"
     inkscape:pagecheckerboard="0"
     inkscape:deskcolor="#d1d1d1"
     inkscape:document-units="mm"
     inkscape:zoom="4"
     inkscape:cx="68.75"
     inkscape:cy="25.75"
     inkscape:window-width="1910"
     inkscape:window-height="1020"
     inkscape:window-x="1925"
     inkscape:window-y="55"
     inkscape:window-maximized="1"
     inkscape:current-layer="layer1" />
  <defs
     id="defs1" />
  <g
     inkscape:label="Réteg 1"
     inkscape:groupmode="layer"
     id="layer1"
     transform="translate(1.111158,-4.9898089)">
    <path
       id="rect1"
       style="fill:#ffffff;fill-rule:evenodd;stroke-width:1.55768;stroke-dasharray:1.55768, 6.23076"
       d="M 1.568265,4.9898089 V 9.1745664 H 1.2861117 v -2.444812 h -1.86603598 v 2.444812 H -1.111158 V 10.32075 h 0.53123372 v 2.445328 H 1.2861117 V 10.32075 H 1.568265 v 4.185274 H 3.434301 V 10.32075 h 5.6446167 v 4.185274 H 10.944954 V 10.32075 h 0.311609 v 2.445328 h 1.865519 V 10.32075 h 0.47749 V 9.1745664 h -0.47749 v -2.444812 h -1.865519 v 2.444812 H 10.944954 V 4.9898089 H 9.0789177 V 9.1745664 H 3.434301 V 4.9898089 Z" />
    <path
       d="m 18.869543,6.9961529 h 0.733803 v 4.1702751 q 0,1.297074 -0.28422,1.886183 -0.09818,0.201538 -0.242878,0.366902 -0.397907,0.496092 -1.260901,0.614948 -0.211873,0.03101 -0.444416,0.03101 -1.167883,0 -1.684646,-0.682126 -0.258381,-0.341064 -0.310058,-0.821653 h 0.816485 q 0.05168,0.330728 0.227376,0.506427 0.03101,0.03101 0.07235,0.06718 0.351398,0.263549 0.909502,0.263549 0.671791,0 1.028358,-0.361733 0,-0.0052 0.0052,-0.01034 0.04134,-0.04134 0.07751,-0.09302 0.273884,-0.39274 0.273884,-1.364253 V 11.31112 q -0.475422,0.682127 -1.038693,0.837156 -0.21704,0.05684 -0.470254,0.05684 -0.671792,0 -1.214392,-0.459919 -0.113688,-0.09302 -0.211873,-0.206705 -0.635618,-0.733803 -0.635618,-1.9636984 0,-1.2609009 0.63045,-2.0153744 0.583942,-0.7027973 1.50378,-0.7027973 0.930172,0 1.519282,0.8578261 z m -1.4366,0.5891094 q -0.738971,0 -1.105872,0.6769591 -0.273885,0.5012598 -0.273885,1.2712362 0,1.1575484 0.578775,1.6536404 0.335895,0.28422 0.811317,0.28422 0.728635,0 1.085202,-0.676959 0.258381,-0.485757 0.258381,-1.2298956 0,-1.2557333 -0.614948,-1.7363226 -0.253213,-0.2015375 -0.599444,-0.2377109 -0.06718,-0.00517 -0.139526,-0.00517 z M 23.44806,6.98065 h 0.847491 l -2.211744,6.040956 q -0.186035,0.485757 -0.449584,0.713132 l -0.0052,0.0052 q -0.04134,0.03617 -0.09302,0.07235 -0.32556,0.23771 -0.744138,0.23771 -0.30489,0 -0.527098,-0.124023 v -0.713132 q 0.30489,0.05684 0.423746,0.05684 0.382404,0 0.558103,-0.310058 0.04134,-0.07751 0.07235,-0.180867 l 0.30489,-0.785479 -1.679479,-5.012598 H 20.7867 l 1.276404,3.886055 z m 0.93534,0.2273756 h 0.733803 v 0.7027972 q 0.434081,-0.6149476 0.971514,-0.775144 0.248046,-0.072347 0.563272,-0.072347 0.759641,0 1.15238,0.4805893 0.07235,0.08785 0.139526,0.1963698 0.02584,0.041341 0.04651,0.08785 0.444416,-0.5426008 0.925005,-0.6872944 0.253214,-0.077514 0.604612,-0.077514 1.033526,0 1.343583,0.7493059 v 0.00517 q 0.113688,0.2738842 0.113688,0.6356181 v 3.7465295 h -0.80615 V 8.7634812 q 0,-0.6769591 -0.475421,-0.9043347 -0.191203,-0.093017 -0.444416,-0.093017 -0.511595,0 -0.857826,0.4134102 -0.315225,0.3772367 -0.315225,0.8888318 V 12.199953 H 27.277271 V 8.7634812 q 0,-0.7389706 -0.5426,-0.9353404 -0.170532,-0.062012 -0.387572,-0.062012 -0.506428,0 -0.857827,0.4134102 -0.310057,0.3772367 -0.310057,0.8888318 V 12.199953 H 24.3834 Z m 7.33803,5.1676264 V 5.4303619 h 2.821524 q 0.971514,0 1.50378,0.4909246 0.552936,0.5064274 0.552936,1.2764038 0,1.0593635 -0.961179,1.5141146 0.899167,0.346231 1.152381,0.9818491 0.118855,0.2997224 0.118855,0.69763 0,0.837155 -0.537433,1.405594 -0.542601,0.578774 -1.508947,0.578774 z m 0.883664,-3.9532341 h 1.72082 q 0.625283,0 0.925005,-0.1912022 0.04134,-0.025838 0.08268,-0.056844 0.377237,-0.2842195 0.377237,-0.8526585 0,-0.5787742 -0.377237,-0.857826 -0.289387,-0.2273756 -0.831988,-0.2480461 -0.08268,0 -0.175699,0 h -1.72082 z m 3.410634,1.9843691 q 0,-0.713133 -0.511595,-1.0180229 -0.299722,-0.180867 -0.733803,-0.180867 h -2.165236 v 2.3874439 h 2.165236 q 0.63045,0 0.930173,-0.335896 0.315225,-0.335896 0.315225,-0.852658 z m 1.581295,-3.1987614 h 0.733803 v 0.9043346 q 0.475421,-0.7699763 0.930173,-0.9611785 0.201537,-0.08785 0.43408,-0.08785 0.118856,0 0.30489,0.025838 v 0.8113174 q -0.625283,0.015503 -0.91467,0.1653641 -0.06201,0.036173 -0.12919,0.082682 -0.558104,0.4030749 -0.558104,1.4572708 v 2.594149 h -0.800982 z m 4.583684,-0.1653641 q 1.281571,0 1.860346,0.9766815 0.403075,0.6769591 0.403075,1.7363226 0,1.3745884 -0.749306,2.0825534 -0.532266,0.50126 -1.348751,0.547769 -0.07751,0.0052 -0.160196,0.0052 -1.193722,0 -1.793167,-0.883664 -0.465086,-0.687294 -0.465086,-1.7879988 0,-1.426265 0.769976,-2.1393975 0.578774,-0.5374332 1.483109,-0.5374332 z m 0.0052,0.7286354 q -0.769977,0 -1.147213,0.6821267 -0.279052,0.5012598 -0.279052,1.2660686 0,1.1420458 0.583942,1.6433048 0.34623,0.294555 0.842323,0.294555 0.759641,0 1.147213,-0.661456 0.284219,-0.490925 0.284219,-1.2453981 0,-1.204057 -0.60978,-1.7053168 -0.335895,-0.2738842 -0.821652,-0.2738842 z"
       id="text3"
       style="font-size:10.5833px;line-height:1.25;font-family:Likhan;-inkscape-font-specification:'Likhan, Normal';stroke-width:0.264583;fill:#ffffff"
       aria-label="gymBro" />
  </g>
</svg>
